<svg width="1024" height="1024" viewBox="0 0 1024 1024" xmlns="http://www.w3.org/2000/svg">
  <path d="M0 0 C2.41843978 1.18016922 4.67427839 2.43750862 6.94995117 3.87182617 C8.19204346 4.64901001 8.19204346 4.64901001 9.45922852 5.44189453 C10.34175293 5.9988501 11.22427734 6.55580566 12.13354492 7.12963867 C14.03256903 8.31698167 15.93232596 9.50315331 17.83276367 10.68823242 C18.79359863 11.28748535 19.75443359 11.88673828 20.74438477 12.50415039 C24.95253106 15.11016256 29.19589464 17.65539304 33.44604492 20.19213867 C40.50674671 24.41131308 47.54759714 28.66121457 54.57104492 32.94213867 C55.52197021 33.5217334 56.47289551 34.10132813 57.45263672 34.69848633 C58.42628174 35.29193848 59.39992676 35.88539063 60.40307617 36.49682617 C67.01687501 40.52799252 73.63728502 44.54824514 80.25854492 48.56713867 C81.44043205 49.2845827 82.62231681 50.00203063 83.80419922 50.71948242 C87.39306346 52.89800678 90.98204355 55.07634023 94.57104492 57.25463867 C96.37125973 58.34725601 98.17147081 59.43987949 99.97166443 60.53253174 C101.16684365 61.25794945 102.36204421 61.98333201 103.55726624 62.7086792 C106.49510454 64.49171451 109.43242789 66.27558745 112.36865234 68.0612793 C118.00375855 71.48754502 123.64510885 74.90267447 129.30151367 78.29370117 C130.36007568 78.93090088 131.4186377 79.56810059 132.50927734 80.22460938 C134.49229019 81.41795902 136.47797142 82.60689031 138.46679688 83.79052734 C139.34682373 84.32137939 140.22685059 84.85223145 141.13354492 85.39916992 C141.89795898 85.85654541 142.66237305 86.3139209 143.44995117 86.78515625 C145.77121555 88.39331581 147.63403119 90.2064443 149.57104492 92.25463867 C127.48131756 105.70531424 104.91939626 118.37765416 82.44604492 131.17260742 C73.16526683 136.46088993 63.91437289 141.79564551 54.69604492 147.19213867 C46.85787931 151.78017976 38.98737541 156.30284621 31.07104492 160.75463867 C23.30118875 165.12439678 15.57550337 169.56166755 7.88354492 174.06713867 C-1.99240758 179.85167129 -11.91530563 185.55071669 -21.85864258 191.21826172 C-29.7949389 195.74291722 -37.71022747 200.30256846 -45.61645508 204.87963867 C-55.15860572 210.39921009 -64.75151527 215.8210685 -74.37792969 221.19213867 C-83.5778612 226.32739037 -92.72900321 231.54483869 -101.8684082 236.78686523 C-106.21921496 239.28086316 -110.57437801 241.76723189 -114.92895508 244.25463867 C-115.79262695 244.74834961 -116.65629883 245.24206055 -117.54614258 245.75073242 C-121.96870358 248.27885312 -126.3927765 250.80426584 -130.81958008 253.32495117 C-132.60614286 254.34299706 -134.39260216 255.36122458 -136.17895508 256.37963867 C-137.04246582 256.87181885 -137.90597656 257.36399902 -138.7956543 257.87109375 C-145.30024123 261.58773664 -151.76351942 265.37121232 -158.18969727 269.22192383 C-160.91612464 270.84382983 -163.4088627 272.24794121 -166.42895508 273.25463867 C-166.92395508 341.06963867 -166.92395508 341.06963867 -167.42895508 410.25463867 C-170.74894951 408.9266409 -173.34031836 407.83107657 -176.30786133 406.03198242 C-177.0499585 405.5845166 -177.79205566 405.13705078 -178.55664062 404.67602539 C-179.36012939 404.18634277 -180.16361816 403.69666016 -180.99145508 403.19213867 C-181.84843994 402.67409668 -182.7054248 402.15605469 -183.58837891 401.62231445 C-186.5379612 399.83754033 -189.48375339 398.04663191 -192.42895508 396.25463867 C-196.54964639 393.7491968 -200.67042201 391.24389378 -204.79147339 388.73904419 C-206.01335243 387.99626449 -207.23513303 387.25332285 -208.45681763 386.51022339 C-215.8847457 381.99279407 -223.33240236 377.51554912 -230.84423828 373.13867188 C-237.71683843 369.11853237 -244.50555577 364.96088863 -251.30395508 360.81713867 C-259.91437542 355.57001064 -268.55461554 350.39035359 -277.3034668 345.3762207 C-284.22823438 341.39777577 -291.08215789 337.30278843 -297.92895508 333.19213867 C-299.02296631 332.53584473 -300.11697754 331.87955078 -301.24414062 331.20336914 C-309.02165764 326.5261703 -309.02165764 326.5261703 -312.42895508 324.25463867 C-312.89192867 321.86959743 -312.89192867 321.86959743 -313.01609802 318.81358337 C-313.06910065 317.6574202 -313.12210327 316.50125702 -313.17671204 315.31005859 C-313.24054329 313.39725098 -313.24054329 313.39725098 -313.30566406 311.44580078 C-313.36050624 310.09375967 -313.41625327 308.74175501 -313.47283936 307.38978577 C-313.96955516 295.00220591 -314.26539679 282.60469073 -314.51724148 270.20998287 C-314.7054956 261.05701176 -314.98489945 251.91675808 -315.38761085 242.77065843 C-315.6631971 236.32717234 -315.82869544 229.88615873 -315.91641098 223.43741614 C-315.97182309 219.59071173 -316.07359114 215.75932652 -316.29589653 211.91834831 C-317.55994684 189.2214312 -317.55994684 189.2214312 -312.16888094 182.73962069 C-305.5255799 176.34147517 -297.0033951 172.41651286 -288.66690254 168.71645546 C-284.67221262 166.91299668 -281.05416489 164.78516078 -277.33520508 162.47338867 C-275.20085012 161.23197814 -273.06546713 159.99233308 -270.92895508 158.75463867 C-261.36616461 153.18849545 -251.87199042 147.52145118 -242.42895508 141.75463867 C-232.31626393 135.57958697 -222.13778794 129.52954486 -211.90405273 123.55737305 C-203.54480004 118.67872677 -195.21873272 113.75091723 -186.92895508 108.75463867 C-177.86321594 103.29172543 -168.75401865 97.90858808 -159.61645508 92.56713867 C-150.82170259 87.42541545 -142.04712823 82.25432102 -133.32104492 76.99658203 C-125.31378351 72.17511913 -117.27868952 67.40090296 -109.24145508 62.62963867 C-108.18569778 62.00273132 -108.18569778 62.00273132 -107.10861206 61.36315918 C-99.64403746 56.93130021 -92.17392404 52.50995399 -84.67895508 48.12963867 C-77.81200218 44.11626219 -71.02550942 39.97247236 -64.2350769 35.831604 C-63.6184317 35.45558044 -63.0017865 35.07955688 -62.36645508 34.69213867 C-61.7540799 34.31869324 -61.14170471 33.9452478 -60.51077271 33.56048584 C-52.99621731 28.98166014 -45.45286366 24.48223373 -37.7512207 20.22314453 C-33.40370844 17.81732525 -29.12324326 15.31749412 -24.86645508 12.75463867 C-24.25777588 12.39072021 -23.64909668 12.02680176 -23.02197266 11.65185547 C-19.75683687 9.69138698 -16.53048316 7.68442211 -13.33129883 5.61791992 C-12.65719971 5.19124023 -11.98310059 4.76456055 -11.28857422 4.32495117 C-9.99550491 3.50542933 -8.71149004 2.6713866 -7.43847656 1.82104492 C-3.04755167 -0.93518698 -3.04755167 -0.93518698 0 0 Z " fill="#0586D8" transform="translate(513.428955078125,135.745361328125)"/>
  <path d="M0 0 C3.31179683 1.2949946 6.2894649 2.66388214 9.30859375 4.546875 C10.12666504 5.05484619 10.94473633 5.56281738 11.78759766 6.08618164 C12.66206543 6.6352417 13.5365332 7.18430176 14.4375 7.75 C15.35837402 8.32419678 16.27924805 8.89839355 17.22802734 9.48999023 C25.738909 14.80839107 34.20498007 20.19738162 42.6640625 25.59765625 C47.59935829 28.74775052 52.54719237 31.87753249 57.5 35 C65.28307779 39.90850586 73.04777537 44.84545357 80.80859375 49.7890625 C87.47130685 54.03151937 94.14598537 58.25459122 100.82739258 62.4675293 C105.87270667 65.65081355 110.90740606 68.85030869 115.93701172 72.05834961 C127.57095031 79.47800599 139.25844225 86.80890348 150.96777344 94.10888672 C155.98090546 97.23543428 160.99024955 100.36803813 166 103.5 C167.99608463 104.74741042 169.99217839 105.99480624 171.98828125 107.2421875 C176.02811357 109.76700047 180.06708726 112.29317966 184.10546875 114.8203125 C193.5577321 120.73403624 203.01589197 126.63745685 212.5 132.5 C229.04808951 142.73505479 245.57754133 152.98733271 261.86035156 163.64111328 C265.84758566 166.24906104 269.84163084 168.84625092 273.8391571 171.43838501 C286.61035172 179.72206284 299.31561155 188.10449461 312.01733398 196.49414062 C323.97325649 204.38965864 335.95493616 212.24111351 348 220 C359.10600848 227.16203134 370.17321703 234.3817501 381.22406006 241.62854004 C388.93200071 246.68301627 396.64403603 251.73076677 404.375 256.75 C405.53962769 257.50615601 405.53962769 257.50615601 406.7277832 258.27758789 C407.50597412 258.78281982 408.28416504 259.28805176 409.0859375 259.80859375 C416.66026313 264.72616023 424.22886025 269.65242614 431.78515625 274.59765625 C434.88484895 276.62560215 437.99257338 278.63794066 441.12109375 280.62109375 C442.21550781 281.32363281 443.30992187 282.02617188 444.4375 282.75 C445.34371094 283.32234375 446.24992187 283.8946875 447.18359375 284.484375 C447.78300781 284.98453125 448.38242187 285.4846875 449 286 C449 286.99 449 287.98 449 289 C447.17773438 290.40356445 447.17773438 290.40356445 444.59375 291.86328125 C443.6346875 292.41306641 442.675625 292.96285156 441.6875 293.52929688 C440.635625 294.11775391 439.58375 294.70621094 438.5 295.3125 C436.2810818 296.57913247 434.06233646 297.8460678 431.84375 299.11328125 C430.70292969 299.75990723 429.56210937 300.4065332 428.38671875 301.07275391 C423.23270324 304.00569785 418.11726378 307.00355682 413 310 C410.99759672 311.16831313 408.99499182 312.33628075 406.9921875 313.50390625 C403.01723501 315.82252074 399.04336383 318.14297316 395.0703125 320.46484375 C384.68987912 326.52905845 374.29425957 332.56521144 363.875 338.5625 C355.6626984 343.29183215 347.47113566 348.05363246 339.3125 352.875 C338.4145874 353.40448242 337.5166748 353.93396484 336.59155273 354.47949219 C332.52743423 356.88288551 328.48222403 359.30882668 324.4765625 361.80859375 C323.44341919 362.44788818 323.44341919 362.44788818 322.3894043 363.10009766 C321.13736659 363.87778612 319.89085072 364.66447787 318.65161133 365.46240234 C315.20775664 367.59646478 313.02270861 368.38952483 309 368 C306.65771484 366.95288086 306.65771484 366.95288086 304.2109375 365.46484375 C303.28345703 364.91054688 302.35597656 364.35625 301.40039062 363.78515625 C300.40201172 363.17542969 299.40363281 362.56570313 298.375 361.9375 C296.20728907 360.64191772 294.03795678 359.34904517 291.8671875 358.05859375 C290.73893555 357.38683105 289.61068359 356.71506836 288.44824219 356.02294922 C282.85714976 352.74287333 277.17961479 349.62343999 271.5 346.5 C261.96478405 341.23802118 252.51615226 335.85135269 243.12451172 330.33764648 C235.48908498 325.85761912 227.81594656 321.44628016 220.125 317.0625 C205.65008497 308.80906947 191.21777657 300.48282341 176.79101562 292.14550781 C164.54341268 285.06870137 152.28513313 278.01143947 140 271 C121.62558182 260.51217195 103.30105678 249.94009894 85.03369141 239.2668457 C73.38314679 232.4638519 61.6908046 225.73348716 50 219 C45.6245717 216.4799091 41.24965081 213.95894027 36.875 211.4375 C35.93672363 210.89746338 34.99844727 210.35742676 34.03173828 209.80102539 C32.04506514 208.65591751 30.08309888 207.46710888 28.14508057 206.24145508 C24.91750822 204.3375915 21.69555193 203.20328511 18.13735962 202.04429626 C10.89998988 199.32894827 4.74996214 196.26788521 0 190 C-4.84563489 178.04447341 -2.85327976 162.79496245 -2.43345451 150.21395731 C-2.28258936 144.926972 -2.26926344 139.63960503 -2.24084473 134.35079956 C-2.16647824 124.35382971 -1.96989582 114.36321903 -1.72845697 104.36904037 C-1.45943973 92.98410344 -1.3280603 81.59884931 -1.20776653 70.21152139 C-0.95743498 46.80416557 -0.53578678 23.40244014 0 0 Z " fill="#3A424A" transform="translate(201,518)"/>
  <path d="M0 0 C2.44053292 0.88192565 4.51181858 2.02103021 6.74243164 3.34936523 C7.63945801 3.88094238 8.53648437 4.41251953 9.46069336 4.96020508 C10.89179443 5.8199292 10.89179443 5.8199292 12.35180664 6.69702148 C13.83898193 7.58381592 13.83898193 7.58381592 15.35620117 8.48852539 C22.9194826 13.01328328 30.41335529 17.63941743 37.86352539 22.34741211 C42.39358888 25.2053841 46.93561992 28.04427009 51.47680664 30.88452148 C52.49097656 31.51914307 53.50514648 32.15376465 54.55004883 32.80761719 C62.08606687 37.51674671 69.65182005 42.1759096 77.22680664 46.82202148 C85.72079144 52.03711117 94.18471747 57.29609156 102.60180664 62.63452148 C104.00003662 63.51829468 104.00003662 63.51829468 105.42651367 64.41992188 C106.27842285 64.96253662 107.13033203 65.50515137 108.00805664 66.06420898 C109.12664062 66.77552979 109.12664062 66.77552979 110.26782227 67.5012207 C112.10180664 68.75952148 112.10180664 68.75952148 114.10180664 70.75952148 C114.39259529 73.13288116 114.39259529 73.13288116 114.44998169 76.17175293 C114.47585358 77.32120392 114.50172546 78.47065491 114.52838135 79.65493774 C114.54632751 80.92243866 114.56427368 82.18993958 114.58276367 83.49584961 C114.60838504 84.83952029 114.63465596 86.18317873 114.66152954 87.52682495 C114.89364019 99.81105534 115.00668113 112.09854471 115.09506416 124.38455963 C115.16147204 133.46286894 115.28039462 142.53717206 115.47008622 151.61376238 C115.59902484 158.00026314 115.66617745 164.38567728 115.68856323 170.77342939 C115.7036507 174.58647907 115.74564235 178.39469516 115.85461807 182.20631409 C116.48712763 205.34353545 116.48712763 205.34353545 112.546278 210.98717308 C108.8575796 214.43706458 104.78170462 216.38936025 100.04830074 218.0337553 C97.20603342 219.09351783 94.77567642 220.6862536 92.24633789 222.34155273 C90.46946936 223.41915963 88.692123 224.49597901 86.91430664 225.57202148 C79.55833243 230.03621521 72.22275679 234.53046325 64.91430664 239.07202148 C55.60668921 244.85284117 46.25043111 250.55233812 36.8684082 256.21142578 C30.7754988 259.89130021 24.7191167 263.61806503 18.71118164 267.43530273 C16.93339655 268.55731114 15.15495214 269.67826692 13.37631226 270.79891968 C11.69841056 271.86289581 10.03047235 272.94253279 8.36279297 274.02246094 C7.34983154 274.66014404 6.33687012 275.29782715 5.29321289 275.95483398 C4.40835205 276.52218262 3.52349121 277.08953125 2.61181641 277.67407227 C-0.45027446 278.99826797 -1.76784321 278.8057108 -4.89819336 277.75952148 C-6.85742188 276.81420898 -6.85742188 276.81420898 -8.77709961 275.63452148 C-9.88976196 274.95885132 -9.88976196 274.95885132 -11.02490234 274.26953125 C-11.82871338 273.77122803 -12.63252441 273.2729248 -13.46069336 272.75952148 C-14.75052124 271.97242798 -14.75052124 271.97242798 -16.06640625 271.16943359 C-17.97332096 270.00550315 -19.87841936 268.83859335 -21.78198242 267.66918945 C-25.08178666 265.64701234 -28.39088143 263.64053169 -31.70288086 261.63842773 C-43.13160903 254.72621066 -54.53219419 247.77171572 -65.87524414 240.71948242 C-73.28877119 236.11798287 -80.74761428 231.59244583 -88.21069336 227.07202148 C-96.02503224 222.33766354 -103.8352108 217.59803056 -111.58569336 212.75952148 C-112.23256104 212.35644775 -112.87942871 211.95337402 -113.54589844 211.53808594 C-117.76959178 208.88812306 -117.76959178 208.88812306 -118.89819336 207.75952148 C-119.05551649 206.02797031 -119.14448195 204.29017629 -119.2068634 202.5526123 C-119.24870255 201.42306625 -119.29054169 200.2935202 -119.33364868 199.12974548 C-119.37404266 197.87899734 -119.41443665 196.62824921 -119.45605469 195.33959961 C-119.50117691 194.03052139 -119.54629913 192.72144318 -119.5927887 191.37269592 C-119.99785761 179.24149101 -120.2379725 167.1066905 -120.43106556 154.97045135 C-120.56399657 146.81592419 -120.74897618 138.6694251 -121.06542969 130.51977539 C-121.34162701 123.40499851 -121.51641258 116.29590044 -121.57334155 109.17587042 C-121.60676366 105.40978889 -121.68718338 101.65933047 -121.88920021 97.89820862 C-122.86347631 79.00496554 -122.86347631 79.00496554 -118.89819336 70.75952148 C-112.07504222 63.50097203 -103.19976924 59.31316656 -94.22037411 55.28625679 C-89.84106587 53.27370991 -85.80315132 50.8504706 -81.72631836 48.29467773 C-80.44408514 47.53219273 -79.15997433 46.77284559 -77.87304688 46.01831055 C-63.19790193 37.36902319 -63.19790193 37.36902319 -48.71557617 28.40234375 C-41.60683733 23.90630988 -34.36894149 19.62327468 -27.1418457 15.32104492 C-22.34387924 12.45796721 -17.56828971 9.57877235 -12.87866211 6.54077148 C-11.77458008 5.82824219 -11.77458008 5.82824219 -10.64819336 5.10131836 C-9.31414021 4.23342583 -7.98676024 3.35515014 -6.66772461 2.46459961 C-2.40691389 -0.30492736 -2.40691389 -0.30492736 0 0 Z " fill="#3B434C" transform="translate(514.898193359375,374.240478515625)"/>
  <path d="M0 0 C0.66 0 1.32 0 2 0 C2 0.66 2 1.32 2 2 C2.68126953 2.23686523 3.36253906 2.47373047 4.06445312 2.71777344 C7.63715104 4.27830317 10.75427304 6.33748697 13.96875 8.515625 C14.63645416 8.96264771 15.30415833 9.40967041 15.99209595 9.87023926 C18.16429576 11.32589181 20.33211369 12.78793299 22.5 14.25 C24.01645133 15.26771913 25.53321803 16.28496851 27.05029297 17.30175781 C30.04117804 19.30707458 33.03057925 21.31456922 36.01855469 23.32421875 C40.71158601 26.479873 45.41679056 29.61705031 50.125 32.75 C51.76699794 33.84494583 53.4089205 34.94000472 55.05078125 36.03515625 C59.1124422 38.74317074 63.17616092 41.44807588 67.2406311 44.15187073 C85.65454678 56.40247116 104.04023862 68.6936782 122.375 81.0625 C123.70285019 81.95755753 123.70285019 81.95755753 125.05752563 82.87069702 C127.54703465 84.54922983 130.03544831 86.22937177 132.5234375 87.91015625 C133.26940689 88.41304169 134.01537628 88.91592712 134.78395081 89.43405151 C139.88463147 92.88463147 139.88463147 92.88463147 141 94 C141.09643778 95.82227687 141.12187371 97.6483336 141.12025452 99.47315979 C141.12231651 101.25481537 141.12231651 101.25481537 141.12442017 103.07246399 C141.12082489 104.38732285 141.11722961 105.7021817 141.11352539 107.05688477 C141.11324352 108.44617714 141.11340125 109.83546967 141.1139679 111.22476196 C141.11425588 115.00765289 141.10835901 118.79051238 141.10139394 122.57339597 C141.09516055 126.52255677 141.09455661 130.47171822 141.09336853 134.42088318 C141.09025517 141.90425075 141.08204172 149.38760379 141.07201904 156.87096494 C141.06085805 165.38835733 141.05534749 173.9057504 141.05032361 182.42314827 C141.03985911 199.94877394 141.02225958 217.47438543 141 235 C140.21529327 235.44770248 139.43058655 235.89540497 138.62210083 236.35667419 C135.64887394 238.05334828 132.67592725 239.75051143 129.70315552 241.44798279 C128.42807644 242.17593502 127.152893 242.90370449 125.87759399 243.63127136 C115.54135431 249.52842116 105.25127245 255.50123545 94.98046875 261.51171875 C88.73334637 265.16282158 82.46046242 268.76854058 76.1875 272.375 C67.5892176 277.32144219 59.0302439 282.32904027 50.50286865 287.39633179 C47.67397818 289.07663501 44.84251831 290.7526031 42.01171875 292.4296875 C38.44269037 294.54520253 34.88190699 296.67284705 31.33203125 298.8203125 C30.07578798 299.56815727 28.81930763 300.31560406 27.5625 301.0625 C26.04849609 301.97708984 26.04849609 301.97708984 24.50390625 302.91015625 C21.59213033 304.1775283 20.92032625 303.98193774 18 303 C16.2109375 302.08300781 16.2109375 302.08300781 14.375 300.953125 C13.33134277 300.31443481 13.33134277 300.31443481 12.26660156 299.6628418 C11.51862305 299.196604 10.77064453 298.73036621 10 298.25 C9.20819336 297.76120361 8.41638672 297.27240723 7.60058594 296.76879883 C0.92561579 292.62605226 -5.66612634 288.35831014 -12.24072266 284.05859375 C-18.58858623 279.90745567 -24.97189897 275.81537388 -31.375 271.75 C-33.23047308 270.5716214 -35.08594196 269.39323619 -36.94140625 268.21484375 C-37.81039551 267.66296387 -38.67938477 267.11108398 -39.57470703 266.54248047 C-46.39249772 262.20638206 -53.18399896 257.8293242 -59.9609375 253.4296875 C-67.44503871 248.57284405 -74.94985815 243.75367926 -82.5 239 C-94.43107473 231.48657838 -106.31386118 223.89064074 -118 216 C-116.77535463 212.32606388 -115.89302163 212.07044144 -112.6015625 210.20703125 C-111.19112671 209.39794312 -111.19112671 209.39794312 -109.75219727 208.57250977 C-108.20423462 207.70130493 -108.20423462 207.70130493 -106.625 206.8125 C-104.41738276 205.54789742 -102.21037365 204.28223274 -100.00390625 203.015625 C-99.42988571 202.68760391 -98.85586517 202.35958282 -98.26445007 202.0216217 C-91.99116051 198.43499263 -85.7751426 194.75301804 -79.5625 191.0625 C-78.4377124 190.39541016 -77.3129248 189.72832031 -76.15405273 189.04101562 C-67.44449663 183.8707489 -58.75805252 178.66244204 -50.078125 173.44262695 C-42.45404141 168.86126565 -34.80566264 164.32259757 -27.1315918 159.82543945 C-25.49164052 158.86115795 -23.87087061 157.86356184 -22.27020264 156.83538818 C-19.63583131 155.35685778 -17.38982693 154.39723203 -14.57618713 153.40782166 C-9.13864161 151.22564193 -4.54254748 148.78628829 -1 144 C2.19412593 134.4948154 1.28425729 123.7154468 1.02701998 113.80687737 C0.9421209 109.80047698 0.96003656 105.79450534 0.96664429 101.78739929 C0.96371419 94.2140849 0.8694877 86.64482217 0.74172533 79.07269686 C0.60067531 70.44641541 0.56249616 61.8206138 0.53258252 53.1933428 C0.46881081 35.46037012 0.27707076 17.73085904 0 0 Z " fill="#0586D8" transform="translate(682,473)"/>
  <path d="M0 0 C2.50747996 1.24007233 4.92218941 2.54401959 7.3293457 3.96899414 C8.71343628 4.78339966 8.71343628 4.78339966 10.12548828 5.61425781 C11.61665161 6.49754761 11.61665161 6.49754761 13.13793945 7.39868164 C22.35241886 12.81725246 31.60028561 18.1694101 40.88793945 23.46118164 C48.67093849 27.89860173 56.45052586 32.34112996 64.20043945 36.83618164 C64.92231445 37.25472412 65.64418945 37.6732666 66.38793945 38.10449219 C67.91095148 38.98776607 69.43389821 39.87115253 70.95678711 40.75463867 C75.84724868 43.59152585 80.73834678 46.42728124 85.63250732 49.25778198 C87.34616425 50.24950559 89.05871643 51.24313738 90.77124023 52.23681641 C91.82682129 52.84710693 92.88240234 53.45739746 93.9699707 54.08618164 C94.90687744 54.62887695 95.84378418 55.17157227 96.80908203 55.73071289 C98.79143293 56.83639268 100.81599698 57.86766062 102.86328125 58.84790039 C105.57543945 60.27368164 105.57543945 60.27368164 106.57543945 62.27368164 C106.66685729 63.61680294 106.69738097 64.96434962 106.69569397 66.31057739 C106.69775597 67.57682449 106.69775597 67.57682449 106.69985962 68.86865234 C106.69626434 69.79653564 106.69266907 70.72441895 106.68896484 71.68041992 C106.68911087 72.65606903 106.6892569 73.63171814 106.68940735 74.63693237 C106.68870881 77.87264198 106.68091912 81.10829454 106.6730957 84.34399414 C106.67123132 86.58316008 106.66980751 88.82232643 106.66880798 91.06149292 C106.66498444 96.96341065 106.65515552 102.86530388 106.644104 108.76721191 C106.6338864 114.7862922 106.62930961 120.80537644 106.62426758 126.82446289 C106.61353313 138.64087992 106.59645864 150.45727875 106.57543945 162.27368164 C103.55672113 163.86383291 100.53777884 165.45355851 97.51879883 167.04321289 C96.67202576 167.4892688 95.82525269 167.93532471 94.95281982 168.39489746 C88.00887139 172.05084231 81.04699759 175.67064395 74.07543945 179.27368164 C66.06532704 183.4212102 58.06025611 187.57763696 50.07543945 191.77368164 C49.31215332 192.17232422 48.54886719 192.5709668 47.76245117 192.98168945 C42.67040837 195.65288788 37.69312576 198.48097676 32.80200195 201.50805664 C30.57543945 202.27368164 30.57543945 202.27368164 28.21606445 201.67602539 C24.95501888 199.94419793 21.81399146 198.06674006 18.70043945 196.08618164 C18.01481934 195.65402344 17.32919922 195.22186523 16.62280273 194.77661133 C9.54430589 190.29434204 2.53710247 185.70166877 -4.47045898 181.10961914 C-12.37229923 175.93750553 -20.33123293 170.85988761 -28.33129883 165.84106445 C-31.72717253 163.69784549 -35.00150495 161.62211665 -38.10424805 159.06665039 C-40.46021155 157.24613314 -42.76484806 156.23220194 -45.51391602 155.12768555 C-49.22982609 153.46677915 -52.57644397 151.1667161 -55.98706055 148.96118164 C-56.807146 148.4370166 -57.62723145 147.91285156 -58.47216797 147.37280273 C-60.22517364 146.25210709 -61.97684937 145.12932884 -63.72729492 144.00463867 C-67.3100569 141.70541868 -70.90336343 139.42296726 -74.49658203 137.14013672 C-77.27189528 135.37654568 -80.045715 133.61062863 -82.8190918 131.84399414 C-87.43955412 128.90085046 -92.06090494 125.95910733 -96.68286133 123.01831055 C-98.50821746 121.85677939 -100.33341324 120.69499619 -102.15844727 119.53295898 C-106.82602809 116.56131856 -111.49611015 113.59373321 -116.1706543 110.63305664 C-126.67663209 103.97348081 -137.11919844 97.24023484 -147.42456055 90.27368164 C-145.91795511 86.19658849 -143.58428074 84.83205385 -139.9128418 82.65649414 C-139.35684296 82.32296432 -138.80084412 81.98943451 -138.22799683 81.64579773 C-136.40317067 80.55391424 -134.57023753 79.47647499 -132.73706055 78.39868164 C-131.4601329 77.63763186 -130.18385337 76.87549366 -128.90820312 76.11230469 C-126.31758802 74.56359335 -123.72424594 73.01961646 -121.12866211 71.47924805 C-115.93086271 68.39026151 -110.7714842 65.23871137 -105.61206055 62.08618164 C-103.73724829 60.94394635 -101.862249 59.80201799 -99.98706055 58.66040039 C-99.06924805 58.10143066 -98.15143555 57.54246094 -97.20581055 56.96655273 C-94.40458555 55.2615234 -91.60222702 53.55837159 -88.79956055 51.85571289 C-78.69573764 45.71531608 -68.61168605 39.54469526 -58.54956055 33.33618164 C-48.84466996 27.35030526 -39.10233115 21.43109904 -29.30102539 15.60424805 C-24.49802941 12.74460748 -19.73025728 9.85279995 -15.03393555 6.82055664 C-14.20764648 6.29308838 -13.38135742 5.76562012 -12.5300293 5.22216797 C-11.00703313 4.24519624 -9.49320329 3.2537185 -7.9909668 2.24511719 C-3.04149165 -0.91113057 -3.04149165 -0.91113057 0 0 Z " fill="#3C434B" transform="translate(716.424560546875,256.726318359375)"/>
  <path d="M0 0 C4.01667154 1.29557596 7.4613048 2.68288858 11.0703125 4.87890625 C12.51700317 5.75313232 12.51700317 5.75313232 13.99291992 6.64501953 C15.02650635 7.27778809 16.06009277 7.91055664 17.125 8.5625 C18.21594971 9.22362793 19.30689941 9.88475586 20.4309082 10.56591797 C23.3592966 12.34057495 26.28331833 14.12229818 29.20623779 15.90594482 C33.93932152 18.79275709 38.67841854 21.66970926 43.41635132 24.54855347 C44.59897915 25.26731618 45.78145349 25.98633149 46.96377563 26.70559692 C57.49115282 33.10971058 68.08525745 39.39616595 78.70458984 45.64648438 C89.13068821 51.79435603 99.46548901 58.09537364 109.8125 64.375 C110.42030304 64.74379272 111.02810608 65.11258545 111.65432739 65.49255371 C117.67986199 69.14928315 123.70233151 72.81054941 129.703125 76.5078125 C130.53610107 77.02037598 131.36907715 77.53293945 132.22729492 78.06103516 C133.73954886 78.99289346 135.25023525 79.92730244 136.7590332 80.86474609 C139.48690126 82.54533449 141.94834636 83.98278212 145 85 C145 130.21 145 175.42 145 222 C141.68000557 220.67200223 139.08863672 219.5764379 136.12109375 217.77734375 C135.37899658 217.32987793 134.63689941 216.88241211 133.87231445 216.42138672 C133.06882568 215.9317041 132.26533691 215.44202148 131.4375 214.9375 C130.58051514 214.41945801 129.72353027 213.90141602 128.84057617 213.36767578 C125.89099388 211.58290165 122.94520169 209.79199324 120 208 C115.87930869 205.49455813 111.75853307 202.98925511 107.63748169 200.48440552 C106.41560265 199.74162582 105.19382205 198.99868417 103.97213745 198.25558472 C96.54420938 193.7381554 89.09655271 189.26091045 81.5847168 184.8840332 C74.71211665 180.8638937 67.92339931 176.70624995 61.125 172.5625 C52.51457966 167.31537197 43.87433954 162.13571491 35.12548828 157.12158203 C28.2007207 153.1431371 21.34679718 149.04814976 14.5 144.9375 C13.40598877 144.28120605 12.31197754 143.62491211 11.18481445 142.94873047 C3.40729744 138.27153163 3.40729744 138.27153163 0 136 C-0.36914349 133.62994194 -0.36914349 133.62994194 -0.36076355 130.59640503 C-0.36488754 129.44933075 -0.36901154 128.30225647 -0.3732605 127.12042236 C-0.36247467 125.85591248 -0.35168884 124.59140259 -0.34057617 123.28857422 C-0.33973028 121.94839497 -0.34020429 120.60821433 -0.34190369 119.26803589 C-0.34276657 115.6235214 -0.32509378 111.97930143 -0.30418181 108.33485556 C-0.28546359 104.52851945 -0.28366842 100.72217704 -0.28010559 96.915802 C-0.2707708 89.70511235 -0.24613773 82.49455868 -0.21605712 75.28392899 C-0.18255761 67.07607731 -0.16603832 58.86821923 -0.15097082 50.66031623 C-0.11958934 33.77346541 -0.06680111 16.88674707 0 0 Z " fill="#0465AC" transform="translate(201,324)"/>
  <path d="M0 0 C0.99 0.495 0.99 0.495 2 1 C2.37438228 18.81957101 2.65619913 36.6381169 2.82899475 54.46077538 C2.91137503 62.73707184 3.02359065 71.01092017 3.20703125 79.28564453 C3.36691686 86.5013023 3.46982107 93.71518734 3.50541592 100.93256724 C3.52621701 104.75249936 3.57476692 108.56736247 3.69168091 112.38566208 C4.37509889 135.58715571 4.37509889 135.58715571 0.44756126 141.2307415 C-3.23996208 144.68463609 -7.31623183 146.63415008 -12.05237293 148.27536678 C-14.89596955 149.33335401 -17.3258728 150.92611762 -19.85546875 152.58203125 C-21.63233728 153.65963814 -23.40968364 154.73645753 -25.1875 155.8125 C-32.54347421 160.27669373 -39.87904985 164.77094176 -47.1875 169.3125 C-56.49392544 175.09257936 -65.8538801 180.78278834 -75.22680664 186.45410156 C-81.33554381 190.15283034 -87.42876177 193.87429565 -93.49609375 197.640625 C-94.09973251 198.01475021 -94.70337128 198.38887543 -95.32530212 198.77433777 C-98.22114065 200.56928753 -101.11410726 202.36840857 -104.00268555 204.17504883 C-105.53662964 205.1267395 -105.53662964 205.1267395 -107.1015625 206.09765625 C-108.00213379 206.65976807 -108.90270508 207.22187988 -109.83056641 207.80102539 C-112 209 -112 209 -114 209 C-114.30397506 191.0152653 -114.53306369 173.03119897 -114.67355824 155.04444885 C-114.74053372 146.69233221 -114.83179858 138.34181342 -114.98071289 129.99072266 C-115.11048034 122.70990042 -115.19419918 115.43023526 -115.22315043 108.14828873 C-115.24007132 104.2934261 -115.27967805 100.44187272 -115.37449074 96.58807373 C-115.46312673 92.95571268 -115.4898855 89.32800187 -115.47039986 85.69466209 C-115.47565138 83.73466283 -115.54543483 81.77516494 -115.61746216 79.81648254 C-115.56145838 76.1167771 -115.38003345 73.43923078 -114 70 C-110.00396413 66.44782168 -105.83906182 64.29041451 -101 62 C-99.63973781 61.20423037 -98.28849477 60.39242476 -96.95458984 59.55322266 C-95.84293457 58.8885498 -94.7312793 58.22387695 -93.5859375 57.5390625 C-92.31606984 56.77898955 -91.04621335 56.01889793 -89.77636719 55.25878906 C-89.14887573 54.88355103 -88.52138428 54.50831299 -87.87487793 54.1217041 C-84.86529749 52.32112889 -81.85853387 50.51586523 -78.8515625 48.7109375 C-77.66301897 47.99777871 -76.47446092 47.28464412 -75.28588867 46.5715332 C-74.68924408 46.21354645 -74.09259949 45.85555969 -73.47787476 45.48672485 C-6 5 -6 5 -3.24511719 3.43457031 C-0.88454358 2.19650706 -0.88454358 2.19650706 0 0 Z " fill="#4A535D" transform="translate(627,444)"/>
  <path d="M0 0 C3.36323863 1.26356569 6.34134734 2.70266618 9.37890625 4.6171875 C10.62099854 5.39437134 10.62099854 5.39437134 11.88818359 6.18725586 C13.21197021 7.02268921 13.21197021 7.02268921 14.5625 7.875 C16.46152411 9.062343 18.36128104 10.24851464 20.26171875 11.43359375 C21.70297119 12.33247314 21.70297119 12.33247314 23.17333984 13.24951172 C27.38148614 15.85552389 31.62484971 18.40075437 35.875 20.9375 C42.93570179 25.15667441 49.97655222 29.4065759 57 33.6875 C57.95092529 34.26709473 58.90185059 34.84668945 59.8815918 35.44384766 C60.85523682 36.0372998 61.82888184 36.63075195 62.83203125 37.2421875 C69.44583009 41.27335385 76.0662401 45.29360646 82.6875 49.3125 C83.86938713 50.02994403 85.05127188 50.74739196 86.2331543 51.46484375 C89.82201854 53.64336811 93.41099863 55.82170156 97 58 C98.80021481 59.09261734 100.60042589 60.18524082 102.40061951 61.27789307 C103.59579873 62.00331077 104.79099929 62.72869334 105.98622131 63.45404053 C108.92405962 65.23707584 111.86138296 67.02094878 114.79760742 68.80664062 C120.43271363 72.23290635 126.07406393 75.6480358 131.73046875 79.0390625 C132.78903076 79.67626221 133.84759277 80.31346191 134.93823242 80.9699707 C136.92124527 82.16332035 138.9069265 83.35225164 140.89575195 84.53588867 C141.77577881 85.06674072 142.65580566 85.59759277 143.5625 86.14453125 C144.32691406 86.60190674 145.09132813 87.05928223 145.87890625 87.53051758 C148.20017062 89.13867714 150.06298627 90.95180563 152 93 C129.91027264 106.45067557 107.34835134 119.12301549 84.875 131.91796875 C75.59422138 137.20625155 66.34335188 142.54104707 57.125 147.9375 C48.24252878 153.13634974 39.31286051 158.24329849 30.34179688 163.28759766 C23.07928507 167.37497164 15.86128764 171.53485237 8.67260742 175.75073242 C3.10583407 179 3.10583407 179 2 179 C1.99576806 178.09570849 1.99153612 177.19141699 1.98717594 176.25972271 C1.88396458 154.27738042 1.77534117 132.29507071 1.66066074 110.31278515 C1.60533377 99.68241164 1.55185262 89.05203479 1.50268555 78.42163086 C1.45983729 69.15842152 1.41355765 59.89523684 1.36312145 50.63206559 C1.33652571 45.7252758 1.31167273 40.81849089 1.29092598 35.91167259 C1.27135783 31.29641116 1.24721347 26.68119664 1.21950912 22.0659771 C1.21013964 20.36922303 1.20246399 18.67245867 1.19658089 16.97568893 C1.18831798 14.66454234 1.17404077 12.35350955 1.15821838 10.04240417 C1.15176583 8.74728503 1.14531328 7.45216589 1.1386652 6.11780071 C1.14106756 2.96692911 1.14106756 2.96692911 0 0 Z " fill="#36A1E5" transform="translate(511,135)"/>
  <path d="M0 0 C7.45832925 3.9411031 14.46709615 8.47626241 21.5 13.125 C23.2550694 14.27989102 25.01087375 15.43365923 26.76667786 16.58743286 C27.92463208 17.34850757 29.08233922 18.10995836 30.23979187 18.87179565 C34.58241046 21.72970458 38.94168292 24.56048852 43.3125 27.375 C51.00449344 32.33632117 58.65839233 37.35554103 66.3125 42.375 C74.65750732 47.84750675 83.004939 53.31584088 91.375 58.75 C92.15141846 59.254104 92.92783691 59.75820801 93.7277832 60.27758789 C94.50597412 60.78281982 95.28416504 61.28805176 96.0859375 61.80859375 C103.66026313 66.72616023 111.22886025 71.65242614 118.78515625 76.59765625 C121.88484895 78.62560215 124.99257338 80.63794066 128.12109375 82.62109375 C129.21550781 83.32363281 130.30992187 84.02617188 131.4375 84.75 C132.34371094 85.32234375 133.24992188 85.8946875 134.18359375 86.484375 C134.78300781 86.98453125 135.38242187 87.4846875 136 88 C136 88.99 136 89.98 136 91 C134.17773438 92.40356445 134.17773438 92.40356445 131.59375 93.86328125 C130.6346875 94.41306641 129.675625 94.96285156 128.6875 95.52929688 C127.635625 96.11775391 126.58375 96.70621094 125.5 97.3125 C123.2810818 98.57913247 121.06233646 99.8460678 118.84375 101.11328125 C117.70292969 101.75990723 116.56210937 102.4065332 115.38671875 103.07275391 C110.23270324 106.00569785 105.11726378 109.00355682 100 112 C97.99759672 113.16831313 95.99499182 114.33628075 93.9921875 115.50390625 C90.01723501 117.82252074 86.04336383 120.14297316 82.0703125 122.46484375 C71.68987912 128.52905845 61.29425957 134.56521144 50.875 140.5625 C37.63525666 148.18705484 24.42463063 155.8682324 11.37109375 163.80859375 C10.66879639 164.23479004 9.96649902 164.66098633 9.24291992 165.10009766 C7.95538745 165.88337418 6.67021184 166.67054408 5.38793945 167.46240234 C1.22040937 170 1.22040937 170 -1 170 C-1.02332676 147.98240954 -1.04097808 125.9648211 -1.05181217 103.9472208 C-1.0569756 93.72481944 -1.0640192 83.50242574 -1.07543945 73.2800293 C-1.08538485 64.37357212 -1.09185308 55.46712049 -1.09408849 46.56065792 C-1.09539585 41.84171197 -1.09848324 37.1227819 -1.10573006 32.40384102 C-1.11248801 27.96753861 -1.11461742 23.5312587 -1.11310768 19.09495163 C-1.11338411 17.46184988 -1.11539057 15.82874742 -1.11920547 14.1956501 C-1.12413922 11.9757879 -1.12299949 9.75601204 -1.12025452 7.53614807 C-1.12117631 6.29080575 -1.1220981 5.04546343 -1.12304783 3.76238346 C-1 1 -1 1 0 0 Z " fill="#4A535C" transform="translate(514,716)"/>
  <path d="M0 0 C0.33 0 0.66 0 1 0 C1 33 1 66 1 100 C-9.82042162 105.69495875 -20.63804595 111.38632956 -31.5 117 C-39.51011241 121.14752856 -47.51518334 125.30395532 -55.5 129.5 C-56.26328613 129.89864258 -57.02657227 130.29728516 -57.81298828 130.70800781 C-62.90503108 133.37920624 -67.88231369 136.20729512 -72.7734375 139.234375 C-75 140 -75 140 -77.359375 139.40234375 C-80.62042057 137.67051629 -83.76144799 135.79305842 -86.875 133.8125 C-87.56062012 133.3803418 -88.24624023 132.94818359 -88.95263672 132.50292969 C-96.03113356 128.0206604 -103.03833698 123.42798713 -110.04589844 118.8359375 C-117.94773868 113.66382389 -125.90667239 108.58620597 -133.90673828 103.56738281 C-138.13462898 100.89905757 -142.14689554 98.19978425 -146 95 C-147.31138904 94.29114106 -148.63777017 93.60543548 -150 93 C-148.989375 92.75765625 -147.97875 92.5153125 -146.9375 92.265625 C-142.86554251 91.09463121 -139.51568537 89.06882698 -136 86.75 C-134.57910222 85.8383189 -133.15716542 84.92825582 -131.734375 84.01953125 C-130.97189453 83.53049316 -130.20941406 83.04145508 -129.42382812 82.53759766 C-125.07031829 79.77587274 -120.65818542 77.11075067 -116.25 74.4375 C-115.29706055 73.85830811 -114.34412109 73.27911621 -113.36230469 72.68237305 C-108.430204 69.68546486 -103.49503216 66.69363758 -98.55865479 63.70378113 C-96.06525718 62.19338339 -93.57236117 60.6821587 -91.07946777 59.17092896 C-89.30520667 58.09594834 -87.530076 57.02241507 -85.75488281 55.94897461 C-80.63796083 52.84800106 -75.54266294 49.72496164 -70.5078125 46.4921875 C-64.30694462 42.52320426 -57.97117563 38.79321663 -51.625 35.0625 C-42.68874299 29.80377798 -33.81585775 24.45817642 -25 19 C-20.94131625 16.49374072 -16.87833411 13.99463949 -12.8125 11.5 C-11.79091797 10.86835938 -10.76933594 10.23671875 -9.71679688 9.5859375 C-8.25790039 8.69261719 -8.25790039 8.69261719 -6.76953125 7.78125 C-5.89917236 7.24564453 -5.02881348 6.71003906 -4.13208008 6.15820312 C-2 5 -2 5 0 5 C0 3.35 0 1.7 0 0 Z " fill="#4A535C" transform="translate(822,319)"/>
  <path d="M0 0 C0.66 0.33 1.32 0.66 2 1 C1.2575 1.6496875 1.2575 1.6496875 0.5 2.3125 C-1.33218192 3.99740483 -1.33218192 3.99740483 -1 7 C-0.34 7.33 0.32 7.66 1 8 C0.67 8.66 0.34 9.32 0 10 C-1.98 8.68 -3.96 7.36 -6 6 C-5 3 -5 3 -2.5625 1.25 C-1.716875 0.8375 -0.87125 0.425 0 0 Z " fill="#3194CF" transform="translate(570,683)"/>
</svg>
